# xmcd
#
# Track frame offsets: 
#        150
#        65617
#        123833
#        181665
#        235203
#
# Disc length: 3579 seconds
#
# Revision: 2
# Processed by: cddbd v1.5.2PL0 Copyright (c) Steve Scherf et al.
# Submitted via: ExactAudioCopy v0.99pb2
#
DISCID=390df905
DTITLE=Hugo - Sister Xianglin
DYEAR=1900
DGENRE=Folklore
TTITLE0=祥林嫂
TTITLE1=秋声醒国魂
TTITLE2=琵琶壮烈歌
TTITLE3=三笑留情
TTITLE4=丽日桃红
EXTD=
EXTT0=
EXTT1=
EXTT2=
EXTT3=
EXTT4=
PLAYORDER=
